<svg width="105" height="64" viewBox="0 0 105 64" fill="none" xmlns="http://www.w3.org/2000/svg">
<path d="M4.64 27C3.936 27 3.392 26.8187 3.008 26.456C2.64533 26.072 2.464 25.528 2.464 24.824V6.616C2.464 5.912 2.64533 5.37867 3.008 5.016C3.392 4.632 3.936 4.44 4.64 4.44H10.848C14.624 4.44 17.536 5.41067 19.584 7.352C21.6533 9.29333 22.688 12.0773 22.688 15.704C22.688 17.5173 22.4213 19.128 21.888 20.536C21.376 21.9227 20.608 23.096 19.584 24.056C18.5813 25.016 17.344 25.752 15.872 26.264C14.4213 26.7547 12.7467 27 10.848 27H4.64ZM6.56 23.608H10.592C11.9147 23.608 13.056 23.448 14.016 23.128C14.9973 22.7867 15.808 22.296 16.448 21.656C17.1093 20.9947 17.6 20.1733 17.92 19.192C18.24 18.1893 18.4 17.0267 18.4 15.704C18.4 13.0587 17.7493 11.0853 16.448 9.784C15.1467 8.48267 13.1947 7.832 10.592 7.832H6.56V23.608ZM29.015 27C28.311 27 27.767 26.8187 27.383 26.456C27.0203 26.072 26.839 25.528 26.839 24.824V6.616C26.839 5.912 27.0203 5.37867 27.383 5.016C27.767 4.632 28.311 4.44 29.015 4.44H40.439C40.9723 4.44 41.3777 4.57867 41.655 4.856C41.9537 5.13333 42.103 5.528 42.103 6.04C42.103 6.57333 41.9537 6.98933 41.655 7.288C41.3777 7.56533 40.9723 7.704 40.439 7.704H30.775V13.912H39.735C40.2897 13.912 40.7057 14.0507 40.983 14.328C41.2603 14.6053 41.399 15.0107 41.399 15.544C41.399 16.0773 41.2603 16.4827 40.983 16.76C40.7057 17.0373 40.2897 17.176 39.735 17.176H30.775V23.736H40.439C40.9723 23.736 41.3777 23.8747 41.655 24.152C41.9537 24.4293 42.103 24.8347 42.103 25.368C42.103 25.9013 41.9537 26.3067 41.655 26.584C41.3777 26.8613 40.9723 27 40.439 27H29.015ZM48.0128 27C47.3514 27 46.8394 26.8187 46.4768 26.456C46.1141 26.072 45.9328 25.5493 45.9328 24.888V6.424C45.9328 5.74133 46.1034 5.22933 46.4448 4.888C46.8074 4.52533 47.3194 4.344 47.9808 4.344C48.6421 4.344 49.1434 4.52533 49.4848 4.888C49.8474 5.22933 50.0288 5.74133 50.0288 6.424V23.512H59.3088C59.8848 23.512 60.3221 23.6613 60.6208 23.96C60.9408 24.2587 61.1007 24.6853 61.1007 25.24C61.1007 25.7947 60.9408 26.232 60.6208 26.552C60.3221 26.8507 59.8848 27 59.3088 27H48.0128ZM67.2333 27.256C66.5719 27.256 66.0599 27.0747 65.6973 26.712C65.3559 26.328 65.1853 25.8053 65.1853 25.144V7.864H58.9453C58.3906 7.864 57.9533 7.71467 57.6333 7.416C57.3346 7.096 57.1852 6.66933 57.1852 6.136C57.1852 5.58133 57.3346 5.16533 57.6333 4.888C57.9533 4.58933 58.3906 4.44 58.9453 4.44H75.5213C76.0759 4.44 76.5026 4.58933 76.8013 4.888C77.1213 5.16533 77.2812 5.58133 77.2812 6.136C77.2812 6.66933 77.1213 7.096 76.8013 7.416C76.5026 7.71467 76.0759 7.864 75.5213 7.864H69.2813V25.144C69.2813 25.8053 69.1106 26.328 68.7693 26.712C68.4279 27.0747 67.9159 27.256 67.2333 27.256ZM10.24 59.32C9.30133 59.32 8.36267 59.2453 7.424 59.096C6.48533 58.968 5.6 58.7653 4.768 58.488C3.936 58.1893 3.18933 57.8267 2.528 57.4C2.144 57.144 1.87733 56.8347 1.728 56.472C1.57867 56.1093 1.52533 55.7573 1.568 55.416C1.632 55.0533 1.77067 54.744 1.984 54.488C2.21867 54.2107 2.50667 54.04 2.848 53.976C3.18933 53.912 3.56267 54.008 3.968 54.264C4.90667 54.8187 5.89867 55.224 6.944 55.48C7.98933 55.736 9.088 55.864 10.24 55.864C11.9253 55.864 13.152 55.5867 13.92 55.032C14.688 54.456 15.072 53.72 15.072 52.824C15.072 52.0773 14.7947 51.4907 14.24 51.064C13.7067 50.6373 12.7787 50.2853 11.456 50.008L7.936 49.272C5.90933 48.8453 4.39467 48.1307 3.392 47.128C2.41067 46.104 1.92 44.76 1.92 43.096C1.92 42.0507 2.13333 41.1013 2.56 40.248C2.98667 39.3947 3.584 38.6587 4.352 38.04C5.14133 37.4213 6.06933 36.952 7.136 36.632C8.224 36.2907 9.41867 36.12 10.72 36.12C12 36.12 13.216 36.28 14.368 36.6C15.52 36.92 16.5547 37.3893 17.472 38.008C17.8133 38.2427 18.0373 38.5307 18.144 38.872C18.272 39.2133 18.304 39.5547 18.24 39.896C18.176 40.216 18.0267 40.4933 17.792 40.728C17.5573 40.9627 17.2587 41.1013 16.896 41.144C16.5547 41.1867 16.16 41.08 15.712 40.824C14.9227 40.376 14.1227 40.056 13.312 39.864C12.5013 39.672 11.6267 39.576 10.688 39.576C9.70667 39.576 8.864 39.7147 8.16 39.992C7.456 40.2693 6.912 40.664 6.528 41.176C6.16533 41.6667 5.984 42.2533 5.984 42.936C5.984 43.704 6.24 44.3227 6.752 44.792C7.264 45.24 8.13867 45.592 9.376 45.848L12.864 46.584C14.976 47.032 16.544 47.736 17.568 48.696C18.6133 49.656 19.136 50.936 19.136 52.536C19.136 53.56 18.9227 54.488 18.496 55.32C18.0907 56.152 17.4933 56.8667 16.704 57.464C15.936 58.0613 15.008 58.52 13.92 58.84C12.832 59.16 11.6053 59.32 10.24 59.32ZM29.9795 59.32C28.2088 59.32 26.6835 58.9893 25.4035 58.328C24.1235 57.6667 23.1315 56.728 22.4275 55.512C21.7448 54.296 21.4035 52.856 21.4035 51.192C21.4035 49.5707 21.7342 48.152 22.3955 46.936C23.0782 45.72 24.0062 44.7707 25.1795 44.088C26.3742 43.384 27.7288 43.032 29.2435 43.032C30.3528 43.032 31.3448 43.2133 32.2195 43.576C33.1155 43.9387 33.8728 44.4613 34.4915 45.144C35.1315 45.8267 35.6115 46.6587 35.9315 47.64C36.2728 48.6 36.4435 49.688 36.4435 50.904C36.4435 51.288 36.3048 51.5867 36.0275 51.8C35.7715 51.992 35.3982 52.088 34.9075 52.088H24.6355V49.784H33.6275L33.1155 50.264C33.1155 49.2827 32.9662 48.4613 32.6675 47.8C32.3902 47.1387 31.9742 46.6373 31.4195 46.296C30.8862 45.9333 30.2142 45.752 29.4035 45.752C28.5075 45.752 27.7395 45.9653 27.0995 46.392C26.4808 46.7973 26.0008 47.384 25.6595 48.152C25.3395 48.8987 25.1795 49.7947 25.1795 50.84V51.064C25.1795 52.8133 25.5848 54.1253 26.3955 55C27.2275 55.8533 28.4435 56.28 30.0435 56.28C30.5982 56.28 31.2168 56.216 31.8995 56.088C32.6035 55.9387 33.2648 55.6933 33.8835 55.352C34.3315 55.096 34.7262 54.9893 35.0675 55.032C35.4088 55.0533 35.6755 55.1707 35.8675 55.384C36.0808 55.5973 36.2088 55.864 36.2515 56.184C36.2942 56.4827 36.2302 56.792 36.0595 57.112C35.9102 57.432 35.6435 57.7093 35.2595 57.944C34.5128 58.4133 33.6488 58.7653 32.6675 59C31.7075 59.2133 30.8115 59.32 29.9795 59.32ZM41.6593 59.256C40.9979 59.256 40.4859 59.0853 40.1233 58.744C39.7819 58.3813 39.6113 57.8693 39.6113 57.208V45.112C39.6113 44.4507 39.7819 43.9493 40.1233 43.608C40.4646 43.2667 40.9446 43.096 41.5633 43.096C42.1819 43.096 42.6619 43.2667 43.0033 43.608C43.3446 43.9493 43.5153 44.4507 43.5153 45.112V47.128H43.1953C43.4939 45.848 44.0806 44.8773 44.9553 44.216C45.8299 43.5547 46.9926 43.16 48.4433 43.032C48.8913 42.9893 49.2433 43.1067 49.4993 43.384C49.7766 43.64 49.9366 44.0453 49.9793 44.6C50.0219 45.1333 49.8939 45.5707 49.5953 45.912C49.3179 46.232 48.8913 46.424 48.3153 46.488L47.6113 46.552C46.3099 46.68 45.3286 47.0853 44.6673 47.768C44.0059 48.4293 43.6753 49.368 43.6753 50.584V57.208C43.6753 57.8693 43.5046 58.3813 43.1633 58.744C42.8219 59.0853 42.3206 59.256 41.6593 59.256ZM59.4473 59.256C58.9139 59.256 58.4446 59.1173 58.0393 58.84C57.6553 58.5627 57.3353 58.136 57.0793 57.56L51.9913 45.752C51.7993 45.2827 51.7246 44.8453 51.7673 44.44C51.8313 44.0347 52.0233 43.7147 52.3433 43.48C52.6846 43.224 53.1433 43.096 53.7193 43.096C54.2099 43.096 54.6046 43.2133 54.9033 43.448C55.2019 43.6613 55.4686 44.0773 55.7033 44.696L60.0233 55.48H59.0633L63.5113 44.664C63.7459 44.0667 64.0126 43.6613 64.3113 43.448C64.6313 43.2133 65.0579 43.096 65.5913 43.096C66.0606 43.096 66.4339 43.224 66.7113 43.48C66.9886 43.7147 67.1593 44.0347 67.2233 44.44C67.2873 44.824 67.2126 45.2507 66.9993 45.72L61.8153 57.56C61.5806 58.136 61.2606 58.5627 60.8553 58.84C60.4713 59.1173 60.0019 59.256 59.4473 59.256Z" fill="white"/>
<path d="M88.5705 6.20929L88.5708 6.20988C88.5707 6.20968 88.5706 6.20949 88.5705 6.20929L89 5.95331L88.5705 6.20929ZM89 6.92997L100.216 25.75H77.7837L89 6.92997Z" stroke="white" stroke-width="3"/>
</svg>
