<svg width="105" height="105" viewBox="0 0 105 105" fill="none" xmlns="http://www.w3.org/2000/svg">
<g clip-path="url(#clip0_114_6)">
<path d="M52.5 0C38.5761 0 25.2226 5.53123 15.3769 15.3769C5.53123 25.2226 0 38.5761 0 52.5C0 66.4239 5.53123 79.7774 15.3769 89.6231C25.2226 99.4688 38.5761 105 52.5 105C54.2405 105 55.9097 104.309 57.1404 103.078C58.3711 101.847 59.0625 100.178 59.0625 98.4375C59.0625 96.697 58.3711 95.0278 57.1404 93.7971C55.9097 92.5664 54.2405 91.875 52.5 91.875C44.7124 91.875 37.0996 89.5657 30.6244 85.2391C24.1492 80.9125 19.1024 74.763 16.1222 67.5682C13.142 60.3733 12.3623 52.4563 13.8816 44.8183C15.4009 37.1803 19.151 30.1644 24.6577 24.6577C30.1644 19.151 37.1803 15.4009 44.8183 13.8816C52.4563 12.3623 60.3733 13.142 67.5682 16.1222C74.763 19.1024 80.9125 24.1492 85.2391 30.6244C89.5657 37.0996 91.875 44.7124 91.875 52.5V72.1875C91.875 73.928 91.1836 75.5972 89.9529 76.8279C88.7222 78.0586 87.053 78.75 85.3125 78.75C83.572 78.75 81.9028 78.0586 80.6721 76.8279C79.4414 75.5972 78.75 73.928 78.75 72.1875V52.5C78.75 47.3082 77.2105 42.2331 74.3261 37.9163C71.4417 33.5995 67.342 30.235 62.5454 28.2482C57.7489 26.2614 52.4709 25.7415 47.3789 26.7544C42.2869 27.7672 37.6096 30.2673 33.9384 33.9384C30.2673 37.6096 27.7672 42.2869 26.7544 47.3789C25.7415 52.4709 26.2614 57.7489 28.2482 62.5454C30.235 67.342 33.5995 71.4417 37.9163 74.3261C42.2331 77.2105 47.3082 78.75 52.5 78.75C57.2311 78.7269 61.866 77.4114 65.9038 74.9456C66.5912 79.876 69.125 84.3614 72.993 87.4951C76.8609 90.6288 81.7744 92.177 86.7401 91.8267C91.7058 91.4764 96.3533 89.2537 99.7429 85.608C103.133 81.9623 105.012 77.1655 105 72.1875V52.5C104.986 38.5803 99.4506 25.2347 89.608 15.3921C79.7653 5.54937 66.4197 0.0137253 52.5 0ZM52.5 65.625C49.9041 65.625 47.3665 64.8552 45.2081 63.413C43.0497 61.9708 41.3675 59.921 40.3741 57.5227C39.3807 55.1244 39.1208 52.4854 39.6272 49.9394C40.1336 47.3934 41.3837 45.0548 43.2192 43.2192C45.0548 41.3837 47.3934 40.1336 49.9394 39.6272C52.4854 39.1208 55.1244 39.3807 57.5227 40.3741C59.921 41.3675 61.9708 43.0497 63.413 45.2081C64.8552 47.3665 65.625 49.9041 65.625 52.5C65.6227 55.9802 64.2391 59.3173 61.7782 61.7782C59.3173 64.2391 55.9802 65.6227 52.5 65.625Z" fill="#313339"/>
</g>
<defs>
<clipPath id="clip0_114_6">
<rect width="105" height="105" fill="white"/>
</clipPath>
</defs>
</svg>
