<svg width="105" height="105" viewBox="0 0 105 105" fill="none" xmlns="http://www.w3.org/2000/svg">
<path fill-rule="evenodd" clip-rule="evenodd" d="M99.4014 27.0703C100.131 24.757 99.4014 23.0754 96.1714 23.0754H85.4314C82.7224 23.0754 81.4714 24.5479 80.7413 26.1229C80.7413 26.1229 75.2165 39.576 67.5015 48.2979C64.9995 50.8204 63.8531 51.6612 62.4976 51.6612C61.7675 51.6612 60.8282 50.8204 60.8282 48.5092V26.9616C60.8282 24.23 59.9956 22.9688 57.7008 22.9688H40.8105C39.1412 22.9688 38.0994 24.23 38.0994 25.4912C38.0994 28.1183 41.9569 28.7499 42.3732 36.1061V52.0898C42.3732 55.5577 41.758 56.1914 40.3922 56.1914C36.7438 56.1914 27.8824 42.6337 22.5668 27.1852C21.5332 24.1254 20.4832 22.9688 17.7721 22.9688H6.92959C3.80215 22.9688 3.28125 24.4392 3.28125 26.0162C3.28125 28.8545 6.92959 43.1464 20.274 62.0628C29.1354 74.9827 41.7498 81.9267 53.1132 81.9267C59.9956 81.9267 60.8282 80.3496 60.8282 77.7226V67.9485C60.8282 64.7965 61.4537 64.2715 63.6439 64.2715C65.2066 64.2715 68.0224 65.1103 74.3818 71.3118C81.6785 78.668 82.9295 82.0312 86.9962 82.0312H97.7341C100.862 82.0312 102.322 80.4542 101.487 77.4067C100.55 74.3593 97.004 69.946 92.4164 64.6919C89.9144 61.7511 86.1615 58.4924 85.0151 56.9153C83.4524 54.8133 83.8687 53.9725 85.0151 52.0816C84.9105 52.0816 98.0478 33.3744 99.4014 27.0621" fill="#313339"/>
</svg>
